<?xml version="1.0" standalone="no"?>
<!DOCTYPE svg PUBLIC "-//W3C//DTD SVG 20010904//EN"
 "http://www.w3.org/TR/2001/REC-SVG-20010904/DTD/svg10.dtd">
<svg version="1.0" xmlns="http://www.w3.org/2000/svg"
 width="700.000000pt" height="700.000000pt" viewBox="0 0 700.000000 700.000000"
 preserveAspectRatio="xMidYMid meet">
<metadata>
Created by potrace 1.11, written by Peter Selinger 2001-2013
</metadata>
<g transform="translate(0.000000,700.000000) scale(0.100000,-0.100000)"
fill="#000000" stroke="none">
<path d="M2200 5696 c-972 -347 -1296 -467 -1298 -479 -3 -14 387 -3430 392
-3433 0 0 345 -191 766 -424 421 -233 917 -508 1104 -612 l338 -188 1092 605
c600 333 1097 609 1104 614 15 9 416 3441 404 3452 -7 7 -2566 920 -2592 925
-8 2 -598 -205 -1310 -460z m900 -1816 l0 -1460 740 0 740 0 0 -335 0 -335
-1080 0 -1080 0 0 1693 0 1694 333 101 c182 55 335 101 340 101 4 1 7 -656 7
-1459z"/>
</g>
</svg>
